<!DOCTYPE svg PUBLIC "-//W3C//DTD SVG 1.1//EN" "http://www.w3.org/Graphics/SVG/1.1/DTD/svg11.dtd">
<!-- Uploaded to: SVG Repo, www.svgrepo.com, Transformed by: SVG Repo Mixer Tools -->
<svg fill="#fff" version="1.1" id="Capa_1" xmlns="http://www.w3.org/2000/svg" xmlns:xlink="http://www.w3.org/1999/xlink" width="800px" height="800px" viewBox="0 0 359.05 359.05" xml:space="preserve" stroke="#fff">
<g id="SVGRepo_bgCarrier" stroke-width="0"/>
<g id="SVGRepo_tracerCarrier" stroke-linecap="round" stroke-linejoin="round"/>
<g id="SVGRepo_iconCarrier"> <g> <g> <path d="M22.527,286.356H132.75L67.292,125.882L2.15,255.333l-0.38,0.857c-2.874,7.521-2.226,15.169,1.784,20.996 C7.557,283.013,14.472,286.356,22.527,286.356z M19.105,263.254l46.402-92.218l39.4,96.614h-82.38 c-2.088,0-3.224-0.573-3.565-1.066C18.643,266.122,18.512,264.989,19.105,263.254z"/> <path d="M281.569,103.828l-17.408-0.536c-10.303-22.828-29.94-39.795-58.23-31.712c-11.582,3.303-6.656,21.354,4.969,18.039 c14.583-4.168,25.282,2.506,32.333,13.037l-105.601-3.236c-10.723-20.825-29.743-35.448-56.41-27.834 c-11.579,3.304-6.652,21.354,4.969,18.039c12.672-3.617,22.405,0.959,29.362,9.116l-6.497-0.201l-0.91-0.013 c-7.837,0-14.547,3.249-18.414,8.912c-3.903,5.718-4.469,13.262-1.559,20.707l58.937,150.686l0.98,2.453 c1.863,4.671,5.087,8.232,27.751,8.232l160.97-0.663c8.087-0.03,14.968-3.416,18.889-9.28c3.928-5.857,4.427-13.518,1.376-21.008 l-53.554-131.4C301.334,121.779,293.266,104.184,281.569,103.828z M339.757,265.623c0.725,1.772,0.712,3.075,0.396,3.544 c-0.311,0.469-1.516,0.969-3.422,0.98l-160.315,0.657l-0.569,9.354v-9.354c-5.374,0-9.472-0.304-12.02-0.621l-58.225-148.858 c-0.807-2.052-0.563-3.13-0.414-3.349c0.131-0.195,1.093-0.648,3.3-0.743l17.101,0.523c1.337,4.229,2.271,8.556,2.801,12.721 c1.51,11.798,20.234,11.94,18.706,0c-0.518-4.04-1.309-8.104-2.35-12.133l106.639,3.267c0.762,2.975,1.34,5.961,1.705,8.86 c1.51,11.798,20.234,11.941,18.706,0c-0.354-2.755-0.871-5.517-1.462-8.281l8.823,0.268c1.614,1.617,4.604,5.788,7.039,11.761 L339.757,265.623z"/> <path d="M216.878,194.276c-8.196-20.091-10.985-22.996-17.025-23.188l-27.721-0.855l-0.91-0.012 c-7.84,0-14.547,3.249-18.414,8.906c-3.903,5.718-4.47,13.269-1.559,20.709l9.146,23.382l0.268,0.676 c2.563,6.382,6.019,6.382,25.185,6.382l13.073-0.049c8.08-0.03,14.967-3.416,18.889-9.279c3.927-5.858,4.421-13.519,1.376-20.995 L216.878,194.276z M202.27,210.546c-0.316,0.469-1.516,0.968-3.434,0.98l-12.988,0.048c-4.251,0-7.551-0.042-9.962-0.104 l-7.216-18.443c-0.804-2.053-0.561-3.13-0.411-3.35c0.131-0.194,0.953-0.742,3.261-0.742c0.006,0,0.019,0,0.03,0l22.786,0.7 c1.242,2.49,3.057,6.411,5.206,11.697l2.308,5.675C202.586,208.78,202.581,210.083,202.27,210.546z"/> <path d="M253.194,170.239l-0.913-0.012c-7.837,0-14.547,3.248-18.414,8.911c-3.903,5.718-4.47,13.263-1.559,20.703l9.146,23.383 l0.269,0.676c2.563,6.382,6.021,6.382,25.185,6.382l13.073-0.049c8.08-0.031,14.967-3.416,18.889-9.28 c3.928-5.858,4.421-13.519,1.376-20.995l-2.308-5.676c-8.196-20.091-10.985-22.995-17.025-23.188L253.194,170.239z M283.329,210.546c-0.316,0.469-1.516,0.968-3.434,0.98l-12.988,0.048c-4.25,0-7.551-0.042-9.962-0.104l-7.216-18.443 c-0.804-2.053-0.561-3.13-0.408-3.35c0.128-0.194,0.95-0.742,3.258-0.742c0.006,0,0.019,0,0.03,0l22.786,0.7 c1.242,2.49,3.057,6.411,5.206,11.697l2.308,5.675C283.646,208.78,283.639,210.083,283.329,210.546z"/> </g> </g> </g>
</svg>