<svg width="512" height="512" viewBox="0 0 512 512" fill="none" xmlns="http://www.w3.org/2000/svg">
<path d="M200.663 84.8513C232.573 94.7905 258.423 99.019 267.36 99.8908L177.777 340.523L275.86 293.442L205.24 472.609C180.966 471.314 129.701 450.289 96.6941 423.567C63.0161 396.301 42.5133 353.897 33.2667 324.175C14.9577 265.325 18.8811 198.628 52.2296 138.47C85.578 78.3124 160.775 72.4274 200.663 84.8513Z" fill="#C6240B"/>
<path d="M432.794 110.353C374.205 65.3654 325.556 78.5304 308.555 90.7364L242.512 271.864L337.326 231.323L221.587 475.878C258.205 477.84 357.989 476.924 411.869 434.029C465.75 391.134 482.926 312.405 486.413 281.019C492.952 242.875 491.383 155.341 432.794 110.353Z" fill="#C6240B"/>
<path d="M192.816 58.6957C143.643 51.3721 104.759 70.9017 91.463 81.5819C119.546 62.2518 150.967 57.1149 214.394 81.5819C239.896 87.4669 260.167 90.7364 277.168 90.7364L188.893 329.407L285.669 283.634L200.663 503.341L326.21 245.055L232.049 283.634L331.441 9L294.169 28.6167C278.476 49.5412 254.282 67.8502 192.816 58.6957Z" fill="#3C6D21"/>
<path d="M447.833 124.085L281.5 475C395.914 459.932 446.503 436.542 480.5 316C507.698 219.566 468.101 145.922 447.833 124.085Z" fill="#BB200B"/>
<path d="M132.658 447.107L177.777 341.177L275.86 294.096L204.586 471.955C173.199 467.77 143.556 453.646 132.658 447.107Z" fill="#BB200B"/>
<path d="M373.944 454.954L477.5 175.5C483.778 191.196 489.889 234.862 488.5 271C487.574 295.081 480.289 318.169 477.5 329.5C458.145 412.152 400.535 446.235 373.944 454.954Z" fill="#B51D0B"/>
<path d="M165 462L228.126 316.329L276.514 292.789L205.24 472.609C200.783 472.346 192.377 470.739 184.5 468.5C176.66 466.271 169 464 165 462Z" fill="#B51D0B"/>
<path d="M436.5 411.5L487.5 283.5L486 293.5L484 304.5C482.211 314.519 476.115 342.479 469.5 357.5C465.128 367.428 460.861 376.001 456 384C450 397 439.642 406.992 436.5 411.5Z" fill="#C64129"/>
<path d="M62.0378 122.123C84.924 91.3902 118.926 82.4537 141.159 80.928C143.213 83.3932 156.198 80.928 171.892 88.7747C189.347 95.5665 204.821 106.418 219.626 109.045C245.586 113.653 249.705 115.584 263.436 110.353L260.167 118.854C243.82 127.354 211.125 128.008 200.663 126.7C192.293 125.654 169.494 122.777 156.198 119.508C144.167 113.753 116.311 118.854 103.887 122.123C36.4054 140.955 27.8176 262.056 31.9589 320.252C10.7696 250.278 27.1249 185.229 46.3445 148.279C52.6284 136.198 55.4689 130.944 62.0378 122.123Z" fill="#CE422C"/>
<path d="M299.4 116.238L304.631 101.199C308.157 98.5547 311.483 93.7818 324.902 87.4669C336.018 82.2358 347.134 78.6714 363.482 80.2741C370.163 80.9292 382.5 83.3224 391.599 86.813C395.395 88.2693 403.379 91.3902 404.677 92.1675C406.983 93.5491 408.978 94.3837 409.908 95.3136C389.867 93.0661 379.311 87.851 363.482 90.0825C335.099 94.0835 305.837 109.102 299.4 116.238Z" fill="#CE422C"/>
<path d="M209.163 61.3113C142.205 49.2797 103.015 70.2478 91.463 81.5819C104.529 69.3321 140.641 67.0941 159.468 67.8502C181.137 68.7204 186.719 74.0217 209.163 80.2741C234.666 87.3784 256.895 90.7363 277.168 90.7363L281.745 80.2741C271.806 80.2741 244.037 72.4274 232.703 68.5041L209.163 61.3113Z" fill="#37551B"/>
<path d="M331.441 9L316.401 16.8467L232.703 282.98L331.441 9Z" fill="#37551B"/>
<path d="M306.593 22.0778L294.169 28.6167C289.557 34.9336 283.411 41.7807 274.552 48.2335C269.101 52.2047 256.681 56.839 246.435 58.6957C239.777 59.9023 232.948 61.0967 225.511 61.3113C217.664 61.3113 219.521 61.8833 216.356 61.3113C284.361 76.4815 303.106 40.8227 306.593 22.0778Z" fill="#5A7829"/>
<path d="M206.548 320.906L188.893 329.406L281.745 80.2741L206.548 320.906Z" fill="#5A7829"/>
</svg>
